<?xml version="1.0" standalone="no"?>
<!DOCTYPE svg PUBLIC "-//W3C//DTD SVG 20010904//EN"
 "http://www.w3.org/TR/2001/REC-SVG-20010904/DTD/svg10.dtd">
<svg version="1.0" xmlns="http://www.w3.org/2000/svg"
 width="1280.000000pt" height="640.000000pt" viewBox="0 0 1280.000000 640.000000"
 preserveAspectRatio="xMidYMid meet">
<metadata>
Created by potrace 1.16, written by Peter Selinger 2001-2019
</metadata>
<g transform="translate(0.000000,640.000000) scale(0.100000,-0.100000)"
fill="#000000" stroke="none">
<path d="M5101 6360 c-40 -11 -78 -17 -85 -13 -6 3 -8 2 -3 -2 4 -5 -20 -23
-53 -41 -120 -64 -243 -182 -294 -281 l-16 -32 42 -39 c24 -21 71 -63 105 -93
54 -47 61 -57 55 -79 -4 -14 -7 -72 -6 -130 0 -126 21 -188 92 -283 86 -113
208 -175 359 -184 101 -7 190 18 278 75 58 38 170 147 192 186 10 18 16 15 79
-43 l69 -62 21 48 c58 132 75 320 40 453 -67 257 -275 466 -526 524 -92 22
-256 20 -349 -4z"/>
<path d="M3905 5711 c-220 -60 -548 -148 -730 -196 -181 -48 -354 -96 -383
-107 -112 -42 -212 -170 -233 -296 -12 -75 0 -138 51 -287 23 -66 64 -183 90
-260 27 -77 90 -259 140 -405 51 -146 104 -301 120 -345 l27 -81 -364 -404
c-404 -450 -419 -470 -417 -580 1 -78 19 -123 71 -180 77 -86 204 -115 310
-69 62 26 59 23 305 297 120 133 214 229 220 226 7 -4 8 -2 4 5 -9 15 162 203
177 194 6 -3 7 -1 3 5 -4 7 62 87 161 197 109 121 177 204 192 238 29 61 38
148 22 212 -6 25 -74 214 -151 420 -77 206 -141 380 -143 386 -1 7 127 45 313
95 173 46 373 99 445 118 71 19 130 34 131 33 1 -1 -18 -121 -43 -267 -47
-280 -48 -321 -14 -388 26 -50 574 -539 639 -569 58 -28 111 -29 160 -4 71 36
102 87 102 167 0 58 -26 107 -89 168 -27 27 -47 54 -44 59 3 6 1 7 -5 3 -10
-6 -206 161 -340 289 l-23 22 16 99 c8 54 20 127 25 162 10 65 17 106 49 312
70 444 73 467 62 524 -22 119 -105 227 -216 281 -50 25 -73 30 -149 32 -88 2
-106 -2 -491 -106z"/>
<path d="M7815 5629 c-242 -35 -443 -184 -546 -404 -20 -44 -157 -390 -304
-770 -147 -379 -272 -701 -278 -714 -9 -18 -27 -28 -67 -38 -223 -55 -425
-254 -509 -501 l-26 -77 -3 -972 -3 -973 266 -2 266 -3 -1 -286 c-1 -421 14
-515 104 -637 199 -271 655 -233 806 67 52 103 53 113 57 499 l5 362 1833 0
1833 0 5 -353 c5 -379 8 -405 63 -513 55 -108 180 -205 304 -233 25 -6 79 -11
121 -11 213 0 384 124 451 329 20 61 22 92 26 424 l4 357 264 0 264 0 0 943
c0 1015 0 1004 -53 1137 -74 181 -216 331 -390 410 -36 16 -84 32 -107 36 -22
4 -45 14 -49 23 -5 9 -64 158 -131 331 -486 1255 -471 1219 -563 1328 -112
133 -265 215 -450 241 -96 13 -3100 13 -3192 0z m3132 -472 c98 -21 178 -89
221 -187 27 -63 461 -1234 458 -1237 -1 -2 -997 -2 -2213 -1 l-2211 3 95 255
c262 709 355 955 378 1000 45 88 126 151 218 170 23 4 706 8 1517 9 1172 0
1488 -2 1537 -12z m-3735 -1938 c29 -6 84 -27 121 -47 298 -155 359 -566 120
-805 -260 -260 -692 -151 -804 203 -28 89 -28 221 0 311 77 242 321 389 563
338z m4621 -4 c90 -23 157 -63 227 -134 288 -291 132 -786 -268 -852 -276 -46
-537 169 -558 460 -11 148 40 285 146 392 126 128 291 176 453 134z"/>
<path d="M915 4794 c-110 -28 -123 -34 -135 -65 -11 -27 -11 -33 7 -57 18 -24
29 -28 103 -35 45 -4 111 -14 145 -22 80 -18 178 -62 170 -75 -3 -5 0 -7 8 -4
18 6 142 -90 189 -147 19 -24 136 -186 259 -359 532 -749 663 -930 669 -930 4
0 32 53 62 118 l55 117 -51 72 c-452 640 -761 1068 -806 1116 -143 155 -372
265 -565 273 -49 1 -99 1 -110 -2z"/>
<path d="M865 3860 c-72 -12 -152 -34 -222 -61 -29 -12 -57 -18 -63 -14 -6 3
-9 1 -8 -7 2 -8 -6 -13 -19 -12 -12 0 -20 -3 -18 -7 3 -3 -26 -24 -63 -45 -95
-55 -263 -226 -326 -332 -50 -83 -108 -225 -128 -310 -6 -26 -13 -115 -15
-198 -4 -139 -2 -160 22 -255 56 -223 175 -413 345 -551 41 -34 74 -65 73 -68
-1 -4 3 -7 10 -6 7 0 49 -18 93 -41 269 -138 577 -152 852 -37 48 20 95 36
104 37 9 1 16 4 15 8 -1 4 25 25 59 47 198 129 364 367 425 607 29 115 32 339
6 452 -88 383 -373 676 -752 773 -93 23 -299 34 -390 20z m360 -345 c385 -129
580 -539 435 -915 -159 -409 -662 -569 -1031 -327 -77 50 -133 103 -123 118 4
7 3 10 -4 5 -30 -18 -140 178 -167 299 -25 111 -17 275 18 376 84 245 291 424
539 469 91 16 246 5 333 -25z"/>
<path d="M4434 3714 c-28 -29 -34 -43 -34 -78 0 -68 23 -87 215 -180 151 -74
175 -89 196 -123 l24 -38 3 -547 3 -547 32 -6 c61 -10 209 -26 213 -23 2 2 -1
260 -5 573 -10 612 -10 615 -64 708 -37 63 -106 122 -191 164 -41 20 -73 40
-70 45 3 4 -1 5 -9 2 -8 -3 -56 15 -106 40 -117 59 -159 61 -207 10z"/>
<path d="M3513 3223 c-165 -352 -407 -842 -414 -838 -4 3 -11 0 -15 -6 -4 -8
-3 -9 4 -5 7 4 12 3 12 -2 0 -5 -45 -102 -101 -217 -62 -128 -97 -211 -91
-217 14 -14 112 -38 157 -38 55 0 162 31 274 80 52 22 100 39 108 36 8 -3 12
-2 9 3 -7 11 304 143 322 136 7 -2 11 -1 8 4 -8 12 120 65 135 56 7 -5 10 -4
6 2 -8 13 301 146 321 138 7 -2 11 -1 8 4 -3 5 88 48 202 96 114 48 210 91
214 94 3 3 3 139 0 301 l-7 295 -70 12 c-62 10 -287 49 -840 144 -93 16 -175
29 -181 29 -6 0 -33 -48 -61 -107z"/>
<path d="M5233 2884 c3 -75 7 -137 9 -139 2 -2 21 0 43 5 62 15 196 12 253 -5
29 -9 50 -19 48 -24 -3 -4 5 -7 17 -7 12 1 21 -4 20 -11 -2 -7 3 -10 10 -7 17
6 113 -60 109 -76 -1 -6 2 -9 8 -5 6 4 40 -25 77 -64 73 -78 105 -89 143 -51
28 28 25 49 -16 138 -55 114 -147 202 -284 269 -106 52 -171 72 -323 98 -133
24 -121 36 -114 -121z"/>
<path d="M4599 2034 c-318 -57 -601 -278 -738 -577 -71 -155 -86 -228 -85
-427 1 -162 3 -182 29 -265 15 -49 28 -100 29 -112 0 -11 4 -19 7 -17 3 2 15
-16 25 -39 60 -135 223 -321 357 -408 34 -23 61 -45 59 -51 -1 -5 2 -7 7 -4 5
3 39 -7 75 -24 387 -173 839 -90 1137 209 430 433 389 1133 -90 1513 -40 32
-91 68 -112 79 -24 12 -37 24 -33 31 4 6 3 8 -3 5 -5 -3 -55 12 -110 33 -170
67 -374 87 -554 54z m374 -328 c31 -10 55 -22 52 -27 -3 -5 0 -6 8 -3 40 15
217 -108 292 -204 223 -281 200 -679 -55 -932 -197 -195 -506 -254 -763 -145
-23 9 -35 20 -31 27 4 7 3 8 -5 4 -18 -11 -98 40 -169 108 -76 72 -144 179
-180 278 -23 65 -26 88 -26 218 -1 134 1 151 27 225 38 108 104 210 182 284
71 66 162 124 183 116 7 -3 11 -1 8 4 -7 11 61 39 139 57 79 18 261 13 338
-10z"/>
</g>
</svg>
